<svg width="60" height="61" viewBox="0 0 60 61" fill="none" xmlns="http://www.w3.org/2000/svg">
<path d="M30 31.7C26.898 31.7031 23.9239 32.9368 21.7304 35.1303C19.5369 37.3238 18.3032 40.2979 18.3 43.4C18.3 43.6386 18.3949 43.8676 18.5637 44.0363C18.7324 44.2051 18.9614 44.3 19.2 44.3H40.8C41.0387 44.3 41.2677 44.2051 41.4364 44.0363C41.6052 43.8676 41.7001 43.6386 41.7001 43.4C41.6969 40.2979 40.4632 37.3238 38.2697 35.1303C36.0762 32.9368 33.1021 31.7031 30 31.7ZM20.142 42.5C20.3614 40.036 21.4952 37.7435 23.3203 36.0737C25.1453 34.4039 27.5294 33.4778 30.003 33.4778C32.4767 33.4778 34.8608 34.4039 36.6858 36.0737C38.5109 37.7435 39.6447 40.036 39.8641 42.5H20.142Z" fill="black"/>
<path d="M29.4 29C30.7647 29 32.0987 28.5953 33.2334 27.8371C34.3681 27.0789 35.2525 26.0013 35.7748 24.7405C36.297 23.4797 36.4337 22.0923 36.1674 20.7538C35.9012 19.4154 35.244 18.1859 34.279 17.2209C33.3141 16.2559 32.0846 15.5988 30.7461 15.3325C29.4077 15.0663 28.0203 15.2029 26.7595 15.7252C25.4987 16.2474 24.421 17.1318 23.6629 18.2665C22.9047 19.4012 22.5 20.7353 22.5 22.1C22.5016 23.9295 23.2291 25.6836 24.5227 26.9772C25.8164 28.2709 27.5705 28.9984 29.4 29ZM29.4 17C30.4087 17 31.3947 17.2991 32.2334 17.8595C33.0721 18.4199 33.7258 19.2164 34.1118 20.1483C34.4978 21.0802 34.5988 22.1056 34.402 23.0949C34.2052 24.0842 33.7195 24.9929 33.0062 25.7062C32.293 26.4194 31.3843 26.9052 30.395 27.102C29.4057 27.2987 28.3802 27.1977 27.4483 26.8117C26.5164 26.4257 25.7199 25.7721 25.1595 24.9334C24.5991 24.0947 24.3 23.1086 24.3 22.1C24.3016 20.7478 24.8394 19.4516 25.7955 18.4955C26.7516 17.5394 28.0479 17.0015 29.4 17Z" fill="black"/>
<path d="M58.2 29.3001H55.17C54.8684 22.9343 52.166 16.9191 47.607 12.4659C43.0481 8.01276 36.9712 5.45228 30.6 5.3001V2.0001C30.6 1.7614 30.5052 1.53248 30.3364 1.3637C30.1676 1.19492 29.9387 1.1001 29.7 1.1001C29.4613 1.1001 29.2324 1.19492 29.0636 1.3637C28.8948 1.53248 28.8 1.7614 28.8 2.0001V5.3301C22.5414 5.63558 16.6205 8.25904 12.1897 12.6898C7.75897 17.1205 5.1355 23.0415 4.83002 29.3001H1.80002C1.56133 29.3001 1.33241 29.3949 1.16363 29.5637C0.994846 29.7325 0.900024 29.9614 0.900024 30.2001C0.900024 30.4388 0.994846 30.6677 1.16363 30.8365C1.33241 31.0053 1.56133 31.1001 1.80002 31.1001H4.80002C4.95221 37.4713 7.51268 43.5482 11.9659 48.1071C16.4191 52.6661 22.4342 55.3684 28.8 55.6701V59.0001C28.8 59.2388 28.8948 59.4677 29.0636 59.6365C29.2324 59.8053 29.4613 59.9001 29.7 59.9001C29.9387 59.9001 30.1676 59.8053 30.3364 59.6365C30.5052 59.4677 30.6 59.2388 30.6 59.0001V55.7001C37.0764 55.5477 43.2453 52.9069 47.8261 48.3262C52.4069 43.7454 55.0476 37.5765 55.2 31.1001H58.2C58.4387 31.1001 58.6676 31.0053 58.8364 30.8365C59.0052 30.6677 59.1 30.4388 59.1 30.2001C59.1 29.9614 59.0052 29.7325 58.8364 29.5637C58.6676 29.3949 58.4387 29.3001 58.2 29.3001ZM30.6 53.9001V51.2001C30.6 50.9614 30.5052 50.7325 30.3364 50.5637C30.1676 50.3949 29.9387 50.3001 29.7 50.3001C29.4613 50.3001 29.2324 50.3949 29.0636 50.5637C28.8948 50.7325 28.8 50.9614 28.8 51.2001V53.8701C22.9116 53.5697 17.3536 51.0574 13.2377 46.8358C9.12168 42.6141 6.75111 36.9942 6.60002 31.1001H9.60002C9.83872 31.1001 10.0676 31.0053 10.2364 30.8365C10.4052 30.6677 10.5 30.4388 10.5 30.2001C10.5 29.9614 10.4052 29.7325 10.2364 29.5637C10.0676 29.3949 9.83872 29.3001 9.60002 29.3001H6.63002C6.93472 23.5191 9.3683 18.0553 13.4618 13.9619C17.5553 9.86837 23.019 7.4348 28.8 7.1301V9.8001C28.8 10.0388 28.8948 10.2677 29.0636 10.4365C29.2324 10.6053 29.4613 10.7001 29.7 10.7001C29.9387 10.7001 30.1676 10.6053 30.3364 10.4365C30.5052 10.2677 30.6 10.0388 30.6 9.8001V7.1001C36.4942 7.25118 42.114 9.62176 46.3357 13.7377C50.5573 17.8537 53.0696 23.4117 53.37 29.3001H50.4C50.1613 29.3001 49.9324 29.3949 49.7636 29.5637C49.5948 29.7325 49.5 29.9614 49.5 30.2001C49.5 30.4388 49.5948 30.6677 49.7636 30.8365C49.9324 31.0053 50.1613 31.1001 50.4 31.1001H53.4C53.2481 37.0992 50.7972 42.8106 46.5538 47.0539C42.3105 51.2972 36.5991 53.7482 30.6 53.9001Z" fill="black"/>
</svg>
