<svg width="60" height="61" viewBox="0 0 60 61" fill="none" xmlns="http://www.w3.org/2000/svg">
<path d="M5.35203 21.5539C5.66965 16.8991 7.55276 12.4886 10.6951 9.03979C13.8374 5.59099 18.0541 3.30675 22.6594 2.55855C27.2647 1.81036 31.9876 2.64223 36.0601 4.91887C40.1327 7.19552 43.3151 10.783 45.09 15.0979H53.202C54.0497 15.0995 54.8622 15.4369 55.4616 16.0363C56.061 16.6357 56.3984 17.4482 56.4 18.2959V29.2999C56.4 30.8479 55.254 32.4979 52.05 32.4979H50.61L51.27 33.8419C51.4413 34.1797 51.5243 34.5553 51.5112 34.9338C51.4982 35.3122 51.3896 35.6812 51.1956 36.0065C51.0015 36.3317 50.7284 36.6025 50.4015 36.7937C50.0746 36.9848 49.7046 37.0902 49.326 37.0999C48.174 37.1359 47.37 37.1599 46.806 37.1659V39.4279C46.806 46.4719 45.072 50.5459 36.228 50.5459L32.394 50.6719V54.4219C32.394 54.6606 32.2992 54.8895 32.1304 55.0583C31.9616 55.2271 31.7327 55.3219 31.494 55.3219C31.2553 55.3219 31.0264 55.2271 30.8576 55.0583C30.6888 54.8895 30.594 54.6606 30.594 54.4219V49.8019C30.5939 49.5683 30.6846 49.3438 30.8469 49.1759C31.0093 49.0079 31.2306 48.9097 31.464 48.9019L36.198 48.7459C43.038 48.7219 45 46.6279 45 39.4039V36.2119C44.9977 36.0847 45.0223 35.9585 45.0723 35.8416C45.1223 35.7246 45.1965 35.6196 45.2901 35.5334C45.3836 35.4473 45.4944 35.3819 45.615 35.3416C45.7357 35.3014 45.8635 35.2872 45.99 35.2999H46.11C46.29 35.2999 46.944 35.2999 49.278 35.2459C49.3525 35.2437 49.4252 35.2227 49.4895 35.185C49.5538 35.1473 49.6075 35.094 49.6458 35.03C49.684 34.966 49.7056 34.8935 49.7084 34.819C49.7112 34.7446 49.6953 34.6706 49.662 34.6039L48.6 32.4979H40.578C39.0503 32.5052 37.5459 32.1234 36.2065 31.3886C34.8671 30.6539 33.7368 29.5902 32.922 28.2979H7.90803C8.91607 31.6535 10.8476 34.6579 13.482 36.9679C13.5798 37.0508 13.6588 37.1536 13.7137 37.2695C13.7685 37.3854 13.7979 37.5117 13.8 37.6399V53.7979C13.8 54.0366 13.7052 54.2655 13.5364 54.4343C13.3676 54.6031 13.1387 54.6979 12.9 54.6979C12.6613 54.6979 12.4324 54.6031 12.2636 54.4343C12.0948 54.2655 12 54.0366 12 53.7979V38.0419C9.72198 35.9715 7.94094 33.4134 6.78981 30.5584C5.63868 27.7035 5.14719 24.6254 5.35203 21.5539ZM24.6 4.14789C20.4773 4.44546 16.5665 6.08934 13.4693 8.82663C10.3721 11.5639 8.26005 15.243 7.45803 19.2979H32.898C33.228 18.7534 33.6163 18.2464 34.056 17.7859C34.8656 16.933 35.841 16.2546 36.9223 15.7923C38.0037 15.3301 39.1681 15.0938 40.344 15.0979H43.128C41.5385 11.5906 38.9073 8.6579 35.5922 6.69871C32.2771 4.73952 28.4391 3.84888 24.6 4.14789ZM54.6 29.2999V18.2959C54.6 17.9251 54.4527 17.5695 54.1906 17.3074C53.9284 17.0452 53.5728 16.8979 53.202 16.8979H51.6V30.6979H52.05C52.998 30.6979 54.6 30.4999 54.6 29.2999ZM40.578 30.6979H49.8V16.8979H40.338C39.4066 16.8978 38.4848 17.0863 37.6282 17.4521C36.7716 17.8178 35.9979 18.3532 35.3537 19.0259C34.7095 19.6987 34.2083 20.4949 33.8801 21.3666C33.5519 22.2382 33.4035 23.1674 33.444 24.0979C33.5707 25.899 34.3789 27.5842 35.7043 28.8103C37.0297 30.0365 38.7725 30.7115 40.578 30.6979ZM32.082 26.4979C31.8322 25.7536 31.6868 24.9782 31.65 24.1939C31.6045 23.1447 31.7488 22.0958 32.076 21.0979H7.20003C7.20003 21.2899 7.16402 21.4759 7.15203 21.6979C7.05182 23.3047 7.15667 24.9176 7.46403 26.4979H32.082Z" fill="black"/>
</svg>
