<svg width="60" height="61" viewBox="0 0 60 61" fill="none" xmlns="http://www.w3.org/2000/svg">
<path d="M50.658 21.2539C50.2939 15.9151 47.8722 10.9259 43.9031 7.33693C39.9339 3.74793 34.7269 1.83916 29.3785 2.01257C24.0301 2.18598 18.9577 4.42802 15.2293 8.2666C11.5009 12.1052 9.40759 17.2407 9.39002 22.5919C9.39033 23.408 9.43841 24.2234 9.53402 25.0339L5.33402 33.5539C5.16802 33.8912 5.08941 34.2648 5.10543 34.6404C5.12145 35.016 5.23158 35.3816 5.4257 35.7035C5.61982 36.0255 5.89172 36.2935 6.21642 36.483C6.54113 36.6724 6.90823 36.7773 7.28402 36.7879C8.43002 36.8239 9.22202 36.8479 9.78602 36.8479V39.1039C9.78602 46.1299 11.52 50.1979 20.34 50.1979L24.162 50.3239V55.0999C24.162 55.3386 24.2568 55.5675 24.4256 55.7363C24.5944 55.9051 24.8233 55.9999 25.062 55.9999C25.3007 55.9999 25.5296 55.9051 25.6984 55.7363C25.8672 55.5675 25.962 55.3386 25.962 55.0999V49.4599C25.9622 49.2263 25.8715 49.0018 25.7091 48.8339C25.5468 48.666 25.3255 48.5677 25.092 48.5599L20.37 48.4039C13.554 48.4039 11.586 46.3219 11.586 39.1099V35.9239C11.5866 35.7983 11.5608 35.674 11.5104 35.5589C11.46 35.4439 11.3861 35.3406 11.2934 35.2559C11.2008 35.1711 11.0914 35.1067 10.9723 35.0667C10.8532 35.0268 10.7271 35.0122 10.602 35.0239H10.482C10.302 35.0239 9.65402 35.0239 7.33202 34.9699C7.25667 34.969 7.18285 34.9486 7.11768 34.9107C7.05251 34.8729 6.99821 34.8189 6.96002 34.7539C6.92321 34.689 6.90386 34.6156 6.90386 34.5409C6.90386 34.4663 6.92321 34.3929 6.96002 34.3279L11.274 25.5619C11.3525 25.402 11.3817 25.2224 11.358 25.0459C11.25 24.2223 11.1958 23.3926 11.196 22.5619C11.1888 19.4089 11.9723 16.3045 13.4749 13.5325C14.9774 10.7605 17.1509 8.40952 19.7967 6.69455C22.4425 4.97957 25.4761 3.95536 28.62 3.7156C31.7638 3.47584 34.9176 4.02818 37.7929 5.3221C40.6682 6.61603 43.1731 8.61023 45.0786 11.1223C46.9841 13.6344 48.2293 16.5841 48.7003 19.7017C49.1714 22.8193 48.8532 26.0053 47.7749 28.9682C46.6966 31.9311 44.8927 34.5763 42.528 36.6619C42.4316 36.7466 42.3545 36.8509 42.3017 36.9678C42.2489 37.0848 42.2218 37.2116 42.222 37.3399V54.9919C42.2204 55.1106 42.2426 55.2283 42.2872 55.3382C42.3319 55.4482 42.3981 55.548 42.482 55.6319C42.5659 55.7158 42.6658 55.782 42.7757 55.8267C42.8856 55.8714 43.0034 55.8935 43.122 55.8919C43.3607 55.8919 43.5896 55.7971 43.7584 55.6283C43.9272 55.4595 44.022 55.2306 44.022 54.9919V37.7359C46.2971 35.6651 48.0754 33.1074 49.2244 30.2536C50.3734 27.3998 50.8634 24.3235 50.658 21.2539Z" fill="black"/>
<path d="M44.076 19.9099L40.476 16.9099C40.3143 16.7752 40.1105 16.7014 39.9 16.7014C39.6896 16.7014 39.4858 16.7752 39.324 16.9099L35.724 19.9099C35.6264 19.9832 35.5448 20.0756 35.484 20.1815C35.4233 20.2874 35.3847 20.4045 35.3706 20.5258C35.3566 20.647 35.3673 20.7699 35.4023 20.8868C35.4372 21.0038 35.4955 21.1125 35.5737 21.2062C35.652 21.2999 35.7484 21.3767 35.8573 21.4319C35.9662 21.4872 36.0851 21.5197 36.2069 21.5276C36.3287 21.5354 36.4509 21.5184 36.5659 21.4775C36.6809 21.4366 36.7865 21.3728 36.876 21.2899L39 19.5259C39 19.5739 39 19.6219 39 19.6699C38.9763 21.9264 38.0583 24.0814 36.4474 25.6618C34.8366 27.2422 32.6646 28.1191 30.408 28.0999C28.1353 28.1098 25.9507 27.2213 24.33 25.6279C24.2501 25.5304 24.1506 25.4509 24.038 25.3943C23.9254 25.3378 23.8022 25.3055 23.6763 25.2996C23.5504 25.2937 23.4247 25.3143 23.3073 25.36C23.1899 25.4058 23.0834 25.4757 22.9947 25.5652C22.906 25.6548 22.8372 25.7619 22.7925 25.8797C22.7479 25.9976 22.7285 26.1235 22.7356 26.2493C22.7427 26.3751 22.7761 26.498 22.8337 26.6101C22.8913 26.7222 22.9718 26.8209 23.07 26.8999C24.5221 28.3288 26.3611 29.3007 28.3597 29.6956C30.3583 30.0905 32.4288 29.891 34.3152 29.1218C36.2016 28.3525 37.8212 27.0473 38.9738 25.3674C40.1263 23.6876 40.7612 21.7067 40.8 19.6699C40.8 19.6159 40.8 19.5679 40.8 19.5139L42.93 21.3139C43.0196 21.3968 43.1251 21.4606 43.2402 21.5015C43.3552 21.5424 43.4773 21.5594 43.5991 21.5516C43.721 21.5437 43.8399 21.5112 43.9488 21.4559C44.0576 21.4007 44.1541 21.3239 44.2323 21.2302C44.3105 21.1365 44.3689 21.0278 44.4038 20.9108C44.4387 20.7939 44.4495 20.671 44.4354 20.5498C44.4214 20.4285 44.3828 20.3114 44.322 20.2055C44.2613 20.0996 44.1796 20.0072 44.082 19.9339L44.076 19.9099Z" fill="black"/>
<path d="M24.99 19.424C24.837 19.2413 24.6179 19.1267 24.3805 19.1053C24.1432 19.0839 23.9071 19.1576 23.724 19.31L21.666 21.026C21.6245 20.6876 21.6024 20.347 21.6 20.006C21.5872 17.7118 22.4855 15.5064 24.0976 13.874C25.7097 12.2417 27.9038 11.3159 30.198 11.3C31.3271 11.2981 32.4452 11.5216 33.4869 11.9574C34.5285 12.3932 35.4726 13.0326 36.264 13.838C36.4338 13.9979 36.6591 14.0856 36.8923 14.0826C37.1255 14.0796 37.3485 13.9862 37.5142 13.8221C37.6799 13.6579 37.7754 13.4358 37.7806 13.2026C37.7858 12.9695 37.7002 12.7434 37.542 12.572C36.5838 11.5971 35.4407 10.8232 34.1797 10.2957C32.9186 9.76815 31.5649 9.49766 30.198 9.50002C27.4269 9.51747 24.7759 10.6334 22.8266 12.603C20.8773 14.5725 19.7888 17.2349 19.8 20.006C19.8021 20.3829 19.8241 20.7594 19.866 21.134L17.676 19.334C17.4915 19.1954 17.2609 19.133 17.0317 19.1595C16.8025 19.1861 16.5923 19.2997 16.4444 19.4768C16.2966 19.6539 16.2224 19.881 16.2372 20.1113C16.252 20.3415 16.3547 20.5573 16.524 20.714L20.124 23.714C20.2857 23.8487 20.4895 23.9225 20.7 23.9225C20.9104 23.9225 21.1143 23.8487 21.276 23.714L24.876 20.714C24.97 20.6381 25.0477 20.5439 25.1046 20.4373C25.1614 20.3306 25.1962 20.2136 25.2068 20.0932C25.2175 19.9728 25.2037 19.8515 25.1665 19.7366C25.1292 19.6216 25.0692 19.5153 24.99 19.424Z" fill="black"/>
</svg>
