<svg width="100" height="100" viewBox="0 0 100 100" fill="none" xmlns="http://www.w3.org/2000/svg">
<path d="M87.5 59H80V27.5C80 27.1022 79.842 26.7206 79.5607 26.4393C79.2794 26.158 78.8978 26 78.5 26H67V11.5C67 11.1022 66.842 10.7206 66.5607 10.4393C66.2794 10.158 65.8978 10 65.5 10H34.5C34.1022 10 33.7206 10.158 33.4393 10.4393C33.158 10.7206 33 11.1022 33 11.5V26H21.5C21.1022 26 20.7206 26.158 20.4393 26.4393C20.158 26.7206 20 27.1022 20 27.5V59H12.5C12.1022 59 11.7206 59.158 11.4393 59.4393C11.158 59.7206 11 60.1022 11 60.5V79.5C11 79.8978 11.158 80.2794 11.4393 80.5607C11.7206 80.842 12.1022 81 12.5 81H31.5C31.8978 81 32.2794 80.842 32.5607 80.5607C32.842 80.2794 33 79.8978 33 79.5V60.5C33 60.1022 32.842 59.7206 32.5607 59.4393C32.2794 59.158 31.8978 59 31.5 59H23V29H33V42.5C33 42.8978 33.158 43.2794 33.4393 43.5607C33.7206 43.842 34.1022 44 34.5 44H49V59H40.5C40.1022 59 39.7206 59.158 39.4393 59.4393C39.158 59.7206 39 60.1022 39 60.5V79.5C39 79.8978 39.158 80.2794 39.4393 80.5607C39.7206 80.842 40.1022 81 40.5 81H59.5C59.8978 81 60.2794 80.842 60.5607 80.5607C60.842 80.2794 61 79.8978 61 79.5V60.5C61 60.1022 60.842 59.7206 60.5607 59.4393C60.2794 59.158 59.8978 59 59.5 59H52V44H65.5C65.8978 44 66.2794 43.842 66.5607 43.5607C66.842 43.2794 67 42.8978 67 42.5V29H77V59H68.5C68.1022 59 67.7206 59.158 67.4393 59.4393C67.158 59.7206 67 60.1022 67 60.5V79.5C67 79.8978 67.158 80.2794 67.4393 80.5607C67.7206 80.842 68.1022 81 68.5 81H87.5C87.8978 81 88.2794 80.842 88.5607 80.5607C88.842 80.2794 89 79.8978 89 79.5V60.5C89 60.1022 88.842 59.7206 88.5607 59.4393C88.2794 59.158 87.8978 59 87.5 59ZM30 78H14V62H30V78ZM58 78H42V62H58V78ZM64 41H36V13H64V41ZM86 78H70V62H86V78Z" fill="black"/>
</svg>
