<svg width="65" height="65" viewBox="0 0 65 65" fill="none" xmlns="http://www.w3.org/2000/svg">
<path d="M43.3329 32.5C40.5488 32.5 37.8567 30.8048 35.7496 27.7284C33.7008 24.7277 32.4496 20.7261 32.2288 16.4642C31.9932 11.9179 33.0102 7.73721 35.0915 4.69034C37.1729 1.64346 40.083 0 43.3329 0C46.5599 0 49.4781 1.67301 51.5527 4.71249C53.6476 7.78152 54.6673 11.9548 54.4316 16.4623C54.2055 20.7298 52.9556 24.7295 50.9108 27.7265C48.8092 30.8048 46.1184 32.5 43.3329 32.5Z" fill="black"/>
<path d="M61.1848 64.9998H25.4824C24.9084 65.004 24.3413 64.8286 23.8248 64.487C23.3084 64.1454 22.8562 63.6468 22.5033 63.0295C22.1288 62.3603 21.8703 61.5844 21.7469 60.7596C21.6236 59.9349 21.6386 59.0828 21.791 58.2672C22.9312 52.0238 25.7559 46.846 29.9593 43.295C33.69 40.1447 38.439 38.4089 43.3329 38.4089C48.323 38.4089 52.9475 40.0709 56.6998 43.2193C60.9126 46.7518 63.7415 51.9592 64.8763 58.2782C65.0268 59.0945 65.0401 59.9466 64.9154 60.7709C64.7907 61.5952 64.531 62.3704 64.1559 63.0387C63.8032 63.6531 63.3521 64.1493 62.8372 64.4892C62.3222 64.8292 61.757 65.0038 61.1848 64.9998Z" fill="black"/>
<path d="M17.7393 33.2387C12.974 33.2387 8.78428 27.1967 8.39563 19.7715C8.20334 15.9675 9.07271 12.4498 10.8331 9.87011C12.5746 7.31628 15.031 5.90918 17.7393 5.90918C20.4477 5.90918 22.8851 7.32367 24.6361 9.89227C26.41 12.4923 27.2767 16.0026 27.0736 19.7752C26.6849 27.1985 22.4965 33.2387 17.7393 33.2387Z" fill="black"/>
<path d="M26.6308 39.0462C24.2488 37.4581 21.1572 36.6641 17.7407 36.6641C13.7513 36.6641 9.87709 38.0822 6.83023 40.6564C3.37577 43.5795 1.05203 47.8359 0.113595 52.975C-0.0237365 53.7142 -0.0367257 54.4861 0.0755995 55.2331C0.187925 55.9801 0.422657 56.6828 0.762238 57.2886C1.08446 57.8527 1.49725 58.3085 1.96888 58.6209C2.44051 58.9334 2.95841 59.0941 3.48274 59.0909H18.5139C18.7676 59.0908 19.0133 58.9694 19.208 58.7477C19.4028 58.526 19.5343 58.2181 19.5796 57.8777C19.5945 57.7613 19.6135 57.645 19.6352 57.5305C20.7835 51.241 23.4742 45.9266 27.45 42.0524C27.5962 41.9087 27.7139 41.7174 27.7922 41.4961C27.8706 41.2747 27.9071 41.0301 27.8987 40.7846C27.8902 40.5391 27.8369 40.3003 27.7437 40.0899C27.6504 39.8795 27.5202 39.7042 27.3647 39.5798C27.1521 39.4099 26.9084 39.2308 26.6308 39.0462Z" fill="black"/>
</svg>
