<svg width="66" height="65" viewBox="0 0 66 65" fill="none" xmlns="http://www.w3.org/2000/svg">
<path d="M32.7001 38.9905L58.1886 38.9916C62.2266 38.9916 65.5 42.2661 65.5 46.3054V49.2475C65.5 52.8026 63.9485 56.1805 61.252 58.4962C56.1651 62.8649 48.8851 65 39.494 65L38.9122 64.9963C39.8942 63.0183 39.6538 60.588 38.1925 58.8318L37.8336 58.439L30.5874 51.2099C32.1484 48.5214 32.995 45.4446 32.995 42.2425C32.995 41.1319 32.8938 40.0451 32.7001 38.9905ZM15.1228 27.6149C23.1987 27.6149 29.7455 34.1639 29.7455 42.2425C29.7455 45.798 28.4774 49.0572 26.3689 51.5922L35.5386 60.7402C36.4915 61.6912 36.4933 63.2348 35.5427 64.188C34.6785 65.0546 33.3246 65.1349 32.3697 64.4278L32.0961 64.1921L22.6624 54.7783C20.4608 56.1062 17.881 56.8701 15.1228 56.8701C7.04684 56.8701 0.5 50.3211 0.5 42.2425C0.5 34.1639 7.04684 27.6149 15.1228 27.6149ZM15.1228 32.4907C9.73881 32.4907 5.37426 36.8567 5.37426 42.2425C5.37426 47.6282 9.73881 51.9942 15.1228 51.9942C20.5067 51.9942 24.8713 47.6282 24.8713 42.2425C24.8713 36.8567 20.5067 32.4907 15.1228 32.4907ZM39.494 0C48.4673 0 55.7416 7.27667 55.7416 16.2529C55.7416 25.2291 48.4673 32.5058 39.494 32.5058C30.5208 32.5058 23.2465 25.2291 23.2465 16.2529C23.2465 7.27667 30.5208 0 39.494 0Z" fill="#212121"/>
</svg>
