<svg width="320" height="320" viewBox="0 0 320 320" fill="none" xmlns="http://www.w3.org/2000/svg">
<path d="M286.803 155.677C294.076 150.996 298.856 143.242 298.856 134.473C298.856 120.25 286.244 108.682 270.741 108.682H195.827C199.369 102.044 202.955 91.1659 202.135 74.9673C200.525 41.7604 180.375 24.5328 168.722 19.5875C161.849 16.6718 154.369 17.3642 148.718 21.4392C143.046 25.5301 136.642 34.9253 138.354 56.4597C140.127 78.8391 111.64 103.115 97.7596 113.545V105.027C97.7596 102.394 95.6284 100.262 92.9953 100.262H29.9069C27.2739 100.262 25.1426 102.394 25.1426 105.027V277.118C25.1426 279.748 27.2739 281.883 29.9069 281.883H92.9953C95.6284 281.883 97.7596 279.748 97.7596 277.118V268.425C115.718 274.882 166.216 292.281 191.171 293.098L241.282 293.447C256.765 293.447 269.362 281.362 269.362 266.51C269.362 259.672 266.681 253.44 262.302 248.679C275.667 246.599 285.913 235.504 285.913 222.129C285.913 215.005 282.988 208.535 278.256 203.714C290.119 200.55 298.859 190.126 298.859 177.758C298.856 168.623 294.079 160.549 286.803 155.677ZM34.6712 272.351V109.788H88.2311V122.556C88.2247 122.683 88.2279 122.81 88.2311 122.937V261.527C88.2279 261.657 88.2215 261.787 88.2311 261.917V272.354L34.6712 272.351ZM270.741 195.189H246.319C246.309 195.189 246.3 195.192 246.287 195.192H241.282C238.652 195.192 236.517 197.326 236.517 199.956C236.517 202.586 238.652 204.721 241.282 204.721H257.782C268.038 204.721 276.382 212.531 276.382 222.126C276.382 231.721 268.038 239.528 257.782 239.528H241.345C241.323 239.528 241.304 239.525 241.282 239.525H223.768C221.138 239.525 219.004 241.66 219.004 244.289C219.004 246.919 221.138 249.054 223.768 249.054H241.25C241.259 249.054 241.269 249.057 241.282 249.057H241.345C251.544 249.092 259.83 256.902 259.83 266.507C259.83 276.105 251.509 283.915 241.313 283.915L191.358 283.569C166.514 282.753 111.417 263.251 97.7596 258.284V125.319C108.079 118.221 150.344 87.1258 147.851 55.707C146.79 42.3512 149.077 32.9274 154.289 29.17C158.625 26.0478 163.583 27.7662 165.002 28.3633C174.607 32.4415 191.238 46.9439 192.619 75.4438C193.874 100.212 183.844 109.477 183.459 109.82C181.938 111.115 181.385 113.218 182.071 115.095C182.764 116.969 184.546 118.214 186.543 118.214H270.737C280.987 118.214 289.324 125.51 289.324 134.476C289.324 143.487 280.987 150.821 270.737 150.821H250.369C247.739 150.821 245.604 152.952 245.604 155.585C245.604 158.218 247.739 160.349 250.369 160.349H270.737C280.987 160.349 289.324 168.156 289.324 177.758C289.328 187.366 280.99 195.189 270.741 195.189Z" fill="#8E0532"/>
</svg>
