<svg width="100" height="100" viewBox="0 0 100 100" fill="none" xmlns="http://www.w3.org/2000/svg">
<path d="M50 52C44.8299 52.0053 39.8731 54.0615 36.2173 57.7173C32.5615 61.3731 30.5053 66.3299 30.5 71.5C30.5 71.8978 30.658 72.2794 30.9393 72.5607C31.2206 72.842 31.6022 73 32 73H68C68.3978 73 68.7794 72.842 69.0607 72.5607C69.342 72.2794 69.5 71.8978 69.5 71.5C69.4947 66.3299 67.4385 61.3731 63.7827 57.7173C60.1269 54.0615 55.1701 52.0053 50 52ZM33.57 70C33.9356 65.8935 35.8253 62.0726 38.867 59.2896C41.9088 56.5066 45.8822 54.9631 50.005 54.9631C54.1278 54.9631 58.1012 56.5066 61.143 59.2896C64.1847 62.0726 66.0744 65.8935 66.44 70H33.57Z" fill="black"/>
<path d="M49 47.5C51.2745 47.5 53.4979 46.8255 55.3891 45.5619C57.2802 44.2983 58.7542 42.5022 59.6246 40.4009C60.495 38.2995 60.7228 35.9872 60.279 33.7565C59.8353 31.5257 58.74 29.4766 57.1317 27.8683C55.5234 26.26 53.4743 25.1647 51.2435 24.721C49.0128 24.2772 46.7005 24.505 44.5991 25.3754C42.4978 26.2458 40.7017 27.7198 39.4381 29.6109C38.1745 31.5021 37.5 33.7255 37.5 36C37.5026 39.0492 38.7151 41.9727 40.8712 44.1288C43.0273 46.2849 45.9508 47.4974 49 47.5ZM49 27.5C50.6811 27.5 52.3245 27.9985 53.7223 28.9325C55.1202 29.8665 56.2096 31.194 56.853 32.7472C57.4963 34.3004 57.6646 36.0094 57.3367 37.6583C57.0087 39.3071 56.1992 40.8217 55.0104 42.0104C53.8217 43.1992 52.3071 44.0087 50.6583 44.3367C49.0094 44.6647 47.3004 44.4963 45.7472 43.853C44.194 43.2096 42.8665 42.1202 41.9325 40.7224C40.9985 39.3245 40.5 37.6811 40.5 36C40.5026 33.7465 41.399 31.586 42.9925 29.9925C44.586 28.399 46.7465 27.5027 49 27.5Z" fill="black"/>
<path d="M97 48H91.95C91.4472 37.3903 86.9433 27.3651 79.345 19.9431C71.7468 12.5211 61.6186 8.25364 51 8V2.5C51 2.10218 50.842 1.72064 50.5607 1.43934C50.2794 1.15804 49.8978 1 49.5 1C49.1022 1 48.7206 1.15804 48.4393 1.43934C48.158 1.72064 48 2.10218 48 2.5V8.05C37.569 8.55913 27.7007 12.9316 20.3162 20.3162C12.9316 27.7007 8.55913 37.569 8.05 48H3C2.60218 48 2.22064 48.158 1.93934 48.4393C1.65804 48.7206 1.5 49.1022 1.5 49.5C1.5 49.8978 1.65804 50.2794 1.93934 50.5607C2.22064 50.842 2.60218 51 3 51H8C8.25364 61.6186 12.5211 71.7468 19.9431 79.345C27.3651 86.9433 37.3903 91.4472 48 91.95V97.5C48 97.8978 48.158 98.2794 48.4393 98.5607C48.7206 98.842 49.1022 99 49.5 99C49.8978 99 50.2794 98.842 50.5607 98.5607C50.842 98.2794 51 97.8978 51 97.5V92C61.794 91.7459 72.0755 87.3447 79.7101 79.7101C87.3447 72.0755 91.7459 61.794 92 51H97C97.3978 51 97.7794 50.842 98.0607 50.5607C98.342 50.2794 98.5 49.8978 98.5 49.5C98.5 49.1022 98.342 48.7206 98.0607 48.4393C97.7794 48.158 97.3978 48 97 48ZM51 89V84.5C51 84.1022 50.842 83.7206 50.5607 83.4393C50.2794 83.158 49.8978 83 49.5 83C49.1022 83 48.7206 83.158 48.4393 83.4393C48.158 83.7206 48 84.1022 48 84.5V88.95C38.186 88.4493 28.9227 84.2622 22.0627 77.2261C15.2028 70.19 11.2518 60.8236 11 51H16C16.3978 51 16.7794 50.842 17.0607 50.5607C17.342 50.2794 17.5 49.8978 17.5 49.5C17.5 49.1022 17.342 48.7206 17.0607 48.4393C16.7794 48.158 16.3978 48 16 48H11.05C11.5578 38.3649 15.6138 29.2588 22.4363 22.4363C29.2588 15.6138 38.3649 11.5578 48 11.05V15.5C48 15.8978 48.158 16.2794 48.4393 16.5607C48.7206 16.842 49.1022 17 49.5 17C49.8978 17 50.2794 16.842 50.5607 16.5607C50.842 16.2794 51 15.8978 51 15.5V11C60.8236 11.2518 70.19 15.2028 77.2261 22.0627C84.2622 28.9227 88.4493 38.186 88.95 48H84C83.6022 48 83.2206 48.158 82.9393 48.4393C82.658 48.7206 82.5 49.1022 82.5 49.5C82.5 49.8978 82.658 50.2794 82.9393 50.5607C83.2206 50.842 83.6022 51 84 51H89C88.7468 60.9984 84.6619 70.5174 77.5897 77.5897C70.5174 84.6619 60.9984 88.7468 51 89Z" fill="black"/>
</svg>
