<svg width="80" height="81" viewBox="0 0 80 81" fill="none" xmlns="http://www.w3.org/2000/svg">
<path fill-rule="evenodd" clip-rule="evenodd" d="M40 75.5C49.2826 75.5 58.185 71.8125 64.7487 65.2487C71.3125 58.685 75 49.7826 75 40.5C75 31.2174 71.3125 22.315 64.7487 15.7513C58.185 9.18749 49.2826 5.5 40 5.5C30.7174 5.5 21.815 9.18749 15.2513 15.7513C8.68749 22.315 5 31.2174 5 40.5C5 49.7826 8.68749 58.685 15.2513 65.2487C21.815 71.8125 30.7174 75.5 40 75.5ZM40 80.5C50.6087 80.5 60.7828 76.2857 68.2843 68.7843C75.7857 61.2828 80 51.1087 80 40.5C80 29.8913 75.7857 19.7172 68.2843 12.2157C60.7828 4.71427 50.6087 0.5 40 0.5C29.3913 0.5 19.2172 4.71427 11.7157 12.2157C4.21427 19.7172 0 29.8913 0 40.5C0 51.1087 4.21427 61.2828 11.7157 68.7843C19.2172 76.2857 29.3913 80.5 40 80.5Z" fill="black"/>
<path fill-rule="evenodd" clip-rule="evenodd" d="M20 40.5002C20 41.1633 20.2634 41.7992 20.7322 42.268C21.2011 42.7368 21.837 43.0002 22.5 43.0002H51.465L40.73 53.7302C40.4976 53.9627 40.3132 54.2386 40.1874 54.5423C40.0616 54.846 39.9968 55.1715 39.9968 55.5002C39.9968 55.8289 40.0616 56.1544 40.1874 56.4581C40.3132 56.7618 40.4976 57.0378 40.73 57.2702C40.9624 57.5027 41.2384 57.687 41.5421 57.8128C41.8458 57.9386 42.1713 58.0034 42.5 58.0034C42.8287 58.0034 43.1542 57.9386 43.4579 57.8128C43.7616 57.687 44.0376 57.5027 44.27 57.2702L59.27 42.2702C59.5028 42.038 59.6875 41.7621 59.8136 41.4584C59.9396 41.1547 60.0045 40.8291 60.0045 40.5002C60.0045 40.1714 59.9396 39.8458 59.8136 39.5421C59.6875 39.2383 59.5028 38.9625 59.27 38.7302L44.27 23.7302C44.0376 23.4978 43.7616 23.3134 43.4579 23.1876C43.1542 23.0618 42.8287 22.9971 42.5 22.9971C42.1713 22.9971 41.8458 23.0618 41.5421 23.1876C41.2384 23.3134 40.9624 23.4978 40.73 23.7302C40.4976 23.9627 40.3132 24.2386 40.1874 24.5423C40.0616 24.846 39.9968 25.1715 39.9968 25.5002C39.9968 25.8289 40.0616 26.1545 40.1874 26.4581C40.3132 26.7618 40.4976 27.0378 40.73 27.2702L51.465 38.0002H22.5C21.837 38.0002 21.2011 38.2636 20.7322 38.7325C20.2634 39.2013 20 39.8372 20 40.5002Z" fill="black"/>
</svg>
