<svg width="71" height="71" viewBox="0 0 71 71" fill="none" xmlns="http://www.w3.org/2000/svg">
<path d="M3 49.9444V21.0556C3 11.0838 11.0838 3 21.0556 3H49.9444C59.9162 3 68 11.0838 68 21.0556V49.9444C68 59.9162 59.9162 68 49.9444 68H21.0556C11.0838 68 3 59.9162 3 49.9444Z" stroke="black" stroke-width="5"/>
<path d="M51.75 44.5278C51.75 44.5278 46.3333 51.7501 35.5 51.7501C24.6667 51.7501 19.25 44.5278 19.25 44.5278" stroke="black" stroke-width="5" stroke-linecap="round" stroke-linejoin="round"/>
<path d="M22.8611 28.2776C21.8639 28.2776 21.0555 27.4692 21.0555 26.4721C21.0555 25.4749 21.8639 24.6665 22.8611 24.6665C23.8583 24.6665 24.6667 25.4749 24.6667 26.4721C24.6667 27.4692 23.8583 28.2776 22.8611 28.2776Z" fill="black" stroke="black" stroke-width="5" stroke-linecap="round" stroke-linejoin="round"/>
<path d="M48.1388 28.2776C47.1418 28.2776 46.3333 27.4692 46.3333 26.4721C46.3333 25.4749 47.1418 24.6665 48.1388 24.6665C49.1358 24.6665 49.9444 25.4749 49.9444 26.4721C49.9444 27.4692 49.1358 28.2776 48.1388 28.2776Z" fill="black" stroke="black" stroke-width="5" stroke-linecap="round" stroke-linejoin="round"/>
</svg>
