<svg width="66" height="65" viewBox="0 0 66 65" fill="none" xmlns="http://www.w3.org/2000/svg">
<path d="M62.25 19.5C61.5935 19.5 46.4875 19.5943 33 26.026C19.5125 19.5943 4.4065 19.5 3.75 19.5C1.95275 19.5 0.5 20.9528 0.5 22.75V54.8697C0.5 55.7505 0.8575 56.5922 1.49125 57.2065C2.125 57.8175 3.05125 58.1978 3.8605 58.1165L4.27325 58.1133C6.493 58.1133 18.2352 58.4318 31.6252 64.6945C31.6772 64.7205 31.7358 64.7108 31.7878 64.7302C32.1745 64.8895 32.5807 65 33 65C33.4193 65 33.8255 64.8895 34.2155 64.7302C34.2675 64.7108 34.326 64.7205 34.378 64.6945C47.768 58.4285 59.5103 58.1133 61.73 58.1133L62.1427 58.1165C62.9162 58.1978 63.875 57.8175 64.512 57.2065C65.1425 56.5922 65.5 55.7472 65.5 54.8697V22.75C65.5 20.9528 64.0472 19.5 62.25 19.5ZM7 26.1592C11.8263 26.52 21.2383 27.7193 29.75 31.6583V56.8197C20 53.001 11.5825 51.9642 7 51.6978V26.1592ZM59 51.6978C54.4175 51.9642 46 53.001 36.25 56.8197V31.6583C44.7617 27.7193 54.1738 26.52 59 26.1592V51.6978Z" fill="black"/>
<path d="M33 19.5C38.3848 19.5 42.75 15.1348 42.75 9.75C42.75 4.36522 38.3848 0 33 0C27.6152 0 23.25 4.36522 23.25 9.75C23.25 15.1348 27.6152 19.5 33 19.5Z" fill="black"/>
</svg>
