<svg width="320" height="320" viewBox="0 0 320 320" fill="none" xmlns="http://www.w3.org/2000/svg">
<path d="M290.162 135.998C290.159 135.938 290.149 135.881 290.143 135.817C290.101 135.244 289.974 134.696 289.751 134.196C289.732 134.155 289.71 134.123 289.691 134.082C289.433 133.55 289.086 133.072 288.659 132.671C288.643 132.655 288.637 132.636 288.621 132.62L245.986 93.6598V54.7758C245.986 52.1362 243.846 49.9997 241.21 49.9997H198.155L161.767 16.7483C159.946 15.083 157.153 15.0799 155.326 16.7483L118.913 49.9997H78.5098C75.8702 49.9997 73.7337 52.1362 73.7337 54.7758V91.2558L28.4657 132.62C28.4497 132.636 28.4434 132.655 28.4274 132.671C28.0008 133.072 27.6537 133.55 27.3958 134.082C27.3767 134.123 27.3512 134.158 27.3321 134.199C27.1092 134.699 26.9819 135.244 26.9405 135.817C26.9373 135.881 26.9246 135.941 26.9214 136.005C26.9214 136.056 26.9055 136.1 26.9055 136.151V298.141C26.9055 298.664 27.0105 299.16 27.1666 299.631C27.1888 299.695 27.2016 299.756 27.2239 299.819C27.4308 300.367 27.7365 300.861 28.1154 301.29C28.1377 301.316 28.1441 301.348 28.1664 301.373C28.1855 301.395 28.2109 301.408 28.2332 301.43C28.3892 301.593 28.5612 301.736 28.7395 301.876C28.8191 301.937 28.8891 302.01 28.9719 302.067C29.1821 302.214 29.4081 302.332 29.6406 302.44C29.6979 302.465 29.7488 302.507 29.8062 302.529C30.3825 302.774 31.0161 302.914 31.6816 302.914H285.395C288.032 302.914 290.172 300.775 290.172 298.138V136.148C290.178 136.097 290.165 136.049 290.162 135.998ZM36.4641 147.432L75.0965 182.718C75.1474 182.769 75.2048 182.817 75.2589 182.865L112.691 217.059L36.4641 287.245V147.432ZM119.769 223.526L156.638 257.2C157.551 258.035 158.704 258.452 159.86 258.452C161.013 258.452 162.168 258.035 163.079 257.204L199.83 223.682L273.395 293.359H43.9275L119.769 223.526ZM206.905 217.231L280.626 149.989V287.054L206.905 217.231ZM279.97 137.654L245.983 168.651V106.6L279.97 137.654ZM158.542 26.7431L183.995 49.9997H133.079L158.542 26.7431ZM236.434 59.5519V95.8249C236.434 95.8982 236.431 95.965 236.434 96.0351V177.366L196.499 213.792C196.47 213.821 196.432 213.83 196.404 213.859C196.391 213.871 196.388 213.891 196.375 213.907L159.863 247.209L83.286 177.264V59.5519H236.434ZM73.7337 168.54L38.521 136.374L73.7337 104.196V168.54Z" fill="#8E0532"/>
<path d="M159.86 194.563C170.848 194.563 181.403 191.191 190.379 184.814C192.532 183.288 193.038 180.305 191.506 178.156C189.981 176 186.988 175.497 184.849 177.029C177.493 182.25 168.855 185.011 159.857 185.011C136.142 185.011 116.849 165.709 116.849 141.981C116.849 118.244 136.142 98.9326 159.857 98.9326C177.226 98.9326 191.213 107.596 198.41 122.715V148.62C198.41 152.915 194.904 156.408 190.599 156.408C186.504 156.408 182.667 152.578 182.339 148.378C182.9 146.337 183.225 144.197 183.225 141.978C183.225 128.605 172.332 117.722 158.946 117.722C145.557 117.722 134.667 128.602 134.667 141.978C134.667 155.355 145.557 166.234 158.946 166.234C165.859 166.234 172.09 163.318 176.516 158.669C179.846 163.031 185.014 165.961 190.596 165.961C200.17 165.961 207.959 158.182 207.959 148.62V121.6C207.959 121.578 207.952 121.555 207.952 121.533C207.949 121.393 207.924 121.253 207.911 121.113C207.892 120.935 207.882 120.753 207.844 120.581C207.828 120.502 207.793 120.425 207.771 120.349C207.707 120.116 207.64 119.887 207.545 119.671C207.538 119.661 207.538 119.648 207.532 119.636C198.973 100.69 181.152 89.3804 159.85 89.3804C130.869 89.3804 107.291 112.978 107.291 141.981C107.3 170.976 130.878 194.563 159.86 194.563ZM158.952 156.685C150.833 156.685 144.226 150.088 144.226 141.981C144.226 133.875 150.833 127.277 158.952 127.277C167.072 127.277 173.679 133.872 173.679 141.981C173.679 150.091 167.072 156.685 158.952 156.685Z" fill="#8E0532"/>
</svg>
